# Wavefront OBJ file
# Creator: Ultimate Unwrap3D Pro v3.40
# Website: http://www.unwrap3d.com
# Time: Sat Dec 01 19:23:59 2012
# num_vertices: 238
# num_uvs: 936
# num_faces: 240
# num_groups: 1

mtllib witchhouseposts.mtl

v -0.325262 0.000001 4.398160
v 0.494332 0.000001 4.260270
v 0.687837 0.000001 4.599757
v 0.636264 0.000001 4.893088
v -0.434130 0.000001 4.587350
v -0.366940 0.000001 4.976384
v -0.070869 0.002418 5.272342
v 0.847445 0.000001 4.973234
v 1.041856 0.000001 5.316840
v 0.973720 0.000001 5.704377
v 0.674919 0.000001 5.954512
v 0.285264 0.000001 5.950203
v -0.012921 0.000001 5.693467
v 0.562416 0.000001 3.877660
v 0.002012 0.000001 3.395159
v 0.368004 0.000001 3.534058
v -0.559551 0.000001 3.865258
v -0.364308 0.000001 3.525959
v -0.492361 0.000001 4.254291
v -0.244512 0.810000 4.641790
v 0.242557 0.810002 4.647176
v 0.195478 0.899998 4.515330
v -0.194177 0.899998 4.511022
v -0.617242 0.090001 4.320877
v -0.498799 0.090001 4.422853
v -0.617242 0.809999 4.320877
v -0.492361 0.899997 4.254291
v -0.701230 0.090001 3.834584
v -0.701230 0.809999 3.834579
v -0.559551 0.899997 3.865252
v -0.457176 0.090001 3.410463
v -0.364308 0.899997 3.525959
v -0.457176 0.809999 3.410463
v 0.000724 0.090001 3.246962
v 0.002012 0.899997 3.395159
v 0.000724 0.809999 3.246962
v 0.458214 0.090001 3.420586
v 0.368004 0.899998 3.534053
v 0.458214 0.810000 3.420581
v 0.701228 0.090001 3.850089
v 0.562416 0.899998 3.877660
v 0.701228 0.810000 3.850089
v 0.634103 0.090002 4.231883
v 0.494280 0.899998 4.265195
v 0.616059 0.810002 4.334509
v 0.242557 0.686080 4.647176
v -0.244512 0.686080 4.641791
v -0.498801 0.596078 4.422853
v -0.392259 0.686080 4.514582
v 0.634102 0.596080 4.231883
v 0.616059 0.640441 4.334509
v 0.562923 0.686080 4.378991
v -0.119094 0.596080 5.363886
v 0.367974 0.596080 5.369271
v 0.320896 0.686080 5.237426
v -0.068759 0.686080 5.233117
v -0.491823 0.596078 5.042966
v -0.366942 0.686080 4.976381
v -0.575810 0.596078 4.556677
v -0.434132 0.686080 4.587348
v 0.687832 0.686080 4.599756
v 0.826645 0.596080 4.572185
v 0.619697 0.686080 4.987292
v 0.741475 0.596080 5.056606
v -0.069739 0.420705 5.364432
v 0.367975 0.420706 5.369272
v -0.119093 0.388199 5.363887
v -0.221443 0.090002 5.275763
v -0.221432 0.330708 5.275773
v -0.491821 0.090001 5.042969
v -0.575808 0.090001 4.556677
v 0.826649 0.090002 4.572186
v 0.786196 0.330708 4.802260
v 0.786195 0.090002 4.802281
v 0.761850 0.420706 4.940728
v 0.741477 0.420706 5.056606
v 0.234933 0.330708 6.080945
v 0.721997 0.330709 6.086330
v 0.674920 0.420706 5.954486
v 0.285265 0.420706 5.950177
v -0.137797 0.330708 5.760026
v -0.012916 0.420706 5.693440
v 0.847444 0.420706 4.973212
v 0.937654 0.330708 4.859740
v 1.041855 0.420706 5.316817
v 1.180668 0.330708 5.289247
v 0.973719 0.420709 5.704353
v 1.095498 0.330709 5.773667
v 0.721997 0.090002 6.086358
v 0.234929 0.090002 6.080972
v -0.137802 0.090002 5.760052
v 0.937654 0.090002 4.859761
v 1.180669 0.090002 5.289270
v 1.095499 0.090002 5.773691
v -1.881892 0.099998 3.373126
v -1.978383 0.099998 3.634207
v -2.039085 0.000000 3.581990
v -1.961892 0.000000 3.373126
v -1.961892 0.999996 3.373126
v -2.039085 0.999996 3.581990
v -1.978383 0.899996 3.634207
v -1.881892 0.899996 3.373126
v -2.222709 0.099998 3.773124
v -2.234546 0.000000 3.693125
v -2.234546 0.999996 3.693125
v -2.222709 0.899996 3.773124
v -2.500546 0.099997 3.724880
v -2.456815 0.000000 3.654529
v -2.456815 0.999996 3.654529
v -2.500546 0.899996 3.724880
v -2.681891 0.099997 3.512043
v -2.601892 -0.000001 3.484261
v -2.681891 0.899996 3.512043
v -2.601892 0.999996 3.484261
v -2.681891 0.099997 3.234205
v -2.601892 -0.000001 3.261991
v -2.681891 0.899996 3.234205
v -2.601892 0.999996 3.261991
v -2.500546 0.100000 3.021371
v -2.456815 -0.000001 3.091722
v -2.456815 1.000000 3.091722
v -2.500546 0.899999 3.021369
v -2.222709 0.100000 2.973125
v -2.234546 -0.000000 3.053126
v -2.234546 1.000000 3.053126
v -2.222709 0.899999 2.973125
v -1.978383 0.099998 3.112044
v -2.039085 0.000000 3.164258
v -1.978383 0.899996 3.112044
v -2.039085 0.999996 3.164258
v 2.716423 0.100004 -3.565838
v 2.662319 0.100004 -3.292804
v 2.594141 0.000004 -3.334793
v 2.637424 0.000004 -3.553220
v 2.716423 0.900004 -3.565838
v 2.637424 1.000004 -3.553220
v 2.594141 1.000004 -3.334793
v 2.662319 0.900004 -3.292804
v 2.442962 0.100004 -3.117088
v 2.418656 0.000004 -3.194220
v 2.418656 1.000000 -3.194220
v 2.442962 0.900004 -3.117088
v 2.160993 0.100004 -3.120908
v 2.193081 0.000004 -3.197273
v 2.193081 1.000000 -3.197273
v 2.160993 0.900004 -3.120908
v 1.948348 0.100004 -3.302474
v 2.022964 0.000004 -3.342525
v 1.948348 0.900004 -3.302474
v 2.022964 1.000004 -3.342530
v 1.904525 0.100004 -3.576830
v 1.987906 0.000004 -3.562016
v 1.904525 0.900004 -3.576833
v 1.987906 1.000004 -3.562017
v 2.050031 0.100004 -3.815609
v 2.104311 0.000004 -3.753036
v 2.050031 0.900004 -3.815609
v 2.104311 1.000004 -3.753036
v 2.316780 0.100004 -3.907073
v 2.317710 0.000004 -3.826209
v 2.317710 1.000004 -3.826209
v 2.316780 0.900004 -3.907073
v 2.579959 0.100004 -3.808432
v 2.528253 0.000004 -3.747293
v 2.528253 1.000004 -3.747295
v 2.579959 0.900004 -3.808432
v -2.096297 0.000004 -3.262410
v -2.042922 0.100004 -3.202819
v -2.301778 0.100004 -3.100506
v -2.303382 0.000004 -3.180560
v -2.301778 0.900000 -3.100507
v -2.042922 0.900004 -3.202820
v -2.096297 1.000000 -3.262411
v -2.303382 1.000000 -3.180561
v -2.568268 0.100004 -3.189819
v -2.516574 0.000004 -3.252010
v -2.516574 1.000000 -3.252010
v -2.568268 0.900004 -3.189819
v -2.636117 0.000004 -3.443328
v -2.717698 0.100004 -3.428967
v -2.636117 1.000004 -3.443328
v -2.717698 0.900004 -3.428967
v -2.680148 0.100004 -3.706050
v -2.606078 0.000004 -3.664995
v -2.680148 0.900004 -3.706050
v -2.606078 1.000004 -3.664995
v -2.473189 0.100004 -3.891418
v -2.440511 0.000004 -3.813291
v -2.440511 1.000004 -3.813291
v -2.473189 0.900004 -3.891418
v -2.193659 0.100004 -3.898335
v -2.216886 0.000004 -3.818824
v -2.216886 1.000004 -3.818824
v -2.193659 0.900004 -3.898335
v -1.972353 0.100004 -3.723566
v -2.039841 0.000004 -3.679008
v -2.039841 1.000004 -3.679008
v -1.972353 0.900004 -3.723566
v -1.912822 0.100004 -3.448884
v -1.992217 0.000004 -3.459262
v -1.992217 1.000004 -3.459263
v -1.912822 0.900004 -3.448884
v 2.413456 0.000001 3.669433
v 2.440358 0.100001 3.744774
v 2.162033 0.100001 3.741695
v 2.190796 0.000001 3.666970
v 2.440358 0.900001 3.744774
v 2.413456 1.000001 3.669433
v 2.190796 1.000001 3.666970
v 2.162033 0.900001 3.741695
v 1.949044 0.100001 3.558314
v 2.020405 0.000001 3.520265
v 2.020405 1.000001 3.520265
v 1.949044 0.900001 3.558314
v 1.901052 0.100001 3.280432
v 1.982011 0.000001 3.297960
v 1.901052 0.900001 3.280432
v 1.982011 1.000001 3.297960
v 2.040511 0.100006 3.038077
v 2.093578 0.000001 3.104075
v 2.040511 0.900004 3.038077
v 2.093578 1.000003 3.104075
v 2.302168 0.100006 2.944648
v 2.302904 0.000005 3.029331
v 2.302904 1.000005 3.029331
v 2.302168 0.900004 2.944648
v 2.512042 0.000001 3.108702
v 2.563590 0.100002 3.043860
v 2.512042 1.000005 3.108702
v 2.563590 0.900004 3.043860
v 2.702456 0.100001 3.289294
v 2.623134 0.000001 3.305048
v 2.623134 1.000001 3.305048
v 2.702456 0.900001 3.289294
v 2.653788 0.100001 3.566107
v 2.584200 0.000001 3.526499
v 2.584200 1.000001 3.526499
v 2.653788 0.900001 3.566106
# num_vertices: 238

vt 0.678092 0.396814
vt 0.842933 0.430386
vt 0.853055 0.507959
vt 0.823938 0.560607
vt 0.644943 0.426464
vt 0.678092 0.396814
vt 0.823938 0.560607
vt 0.629150 0.503013
vt 0.662306 0.580611
vt 0.629150 0.503013
vt 0.823938 0.560607
vt 0.662306 0.580611
vt 0.823938 0.560607
vt 0.856419 0.593082
vt 0.867795 0.670467
vt 0.662306 0.580611
vt 0.867795 0.670467
vt 0.826821 0.737786
vt 0.752806 0.762962
vt 0.662306 0.580611
vt 0.752806 0.762962
vt 0.680683 0.733691
vt 0.643737 0.664395
vt 0.678092 0.396814
vt 0.882130 0.362868
vt 0.842933 0.430386
vt 0.678092 0.396814
vt 0.812016 0.232549
vt 0.870272 0.284813
vt 0.882130 0.362868
vt 0.812016 0.232549
vt 0.678092 0.396814
vt 0.673966 0.279856
vt 0.734533 0.230894
vt 0.678092 0.396814
vt 0.658824 0.356327
vt 0.673966 0.279856
vt 0.294789 0.159865
vt 0.389749 0.124793
vt 0.389759 0.158685
vt 0.316746 0.185689
vt 0.678092 0.396814
vt 0.638417 0.387922
vt 0.625578 0.359192
vt 0.658824 0.356327
vt 0.244054 0.248629
vt 0.294789 0.159865
vt 0.316746 0.185689
vt 0.277814 0.253967
vt 0.645280 0.261234
vt 0.673966 0.279856
vt 0.658824 0.356327
vt 0.625578 0.359192
vt 0.261367 0.349873
vt 0.244054 0.248629
vt 0.277814 0.253967
vt 0.291192 0.331736
vt 0.645280 0.261234
vt 0.723665 0.197469
vt 0.734533 0.230894
vt 0.673966 0.279856
vt 0.261367 0.349873
vt 0.291192 0.331736
vt 0.350801 0.382415
vt 0.339152 0.415786
vt 0.723665 0.197469
vt 0.824574 0.199494
vt 0.812016 0.232549
vt 0.734533 0.230894
vt 0.339152 0.415786
vt 0.350801 0.382415
vt 0.428540 0.382454
vt 0.440312 0.415786
vt 0.824574 0.199494
vt 0.900290 0.267485
vt 0.870272 0.284813
vt 0.812016 0.232549
vt 0.440312 0.415786
vt 0.428540 0.382454
vt 0.488161 0.331747
vt 0.517871 0.349882
vt 0.870272 0.284813
vt 0.900290 0.267485
vt 0.915331 0.368255
vt 0.882130 0.362868
vt 0.488161 0.331747
vt 0.501748 0.253973
vt 0.535631 0.248644
vt 0.517871 0.349882
vt 0.842933 0.430386
vt 0.882130 0.362868
vt 0.915331 0.368255
vt 0.876632 0.436404
vt 0.462793 0.185667
vt 0.484752 0.159810
vt 0.535631 0.248644
vt 0.501748 0.253973
vt 0.389759 0.158685
vt 0.389749 0.124793
vt 0.484752 0.159810
vt 0.462793 0.185667
vt 0.291192 0.331736
vt 0.277814 0.253967
vt 0.316746 0.185689
vt 0.291192 0.331736
vt 0.316746 0.185689
vt 0.389759 0.158685
vt 0.350801 0.382415
vt 0.350801 0.382415
vt 0.389759 0.158685
vt 0.462793 0.185667
vt 0.428540 0.382454
vt 0.428540 0.382454
vt 0.462793 0.185667
vt 0.501748 0.253973
vt 0.488161 0.331747
vt 0.399993 0.439602
vt 0.399993 0.464492
vt 0.302160 0.464490
vt 0.302160 0.439601
vt 0.234762 0.319876
vt 0.234764 0.421523
vt 0.203372 0.464490
vt 0.203371 0.319876
vt 0.203372 0.464490
vt 0.234764 0.421523
vt 0.263001 0.439601
vt 0.302160 0.439601
vt 0.302160 0.464490
vt 0.203372 0.464490
vt 0.263001 0.439601
vt 0.104252 0.464492
vt 0.104252 0.319878
vt 0.203371 0.319876
vt 0.203372 0.464490
vt 0.475796 0.481759
vt 0.574079 0.481759
vt 0.574077 0.626372
vt 0.475796 0.626372
vt 0.475796 0.481759
vt 0.475796 0.626372
vt 0.378139 0.626372
vt 0.378139 0.481759
vt 0.378139 0.481759
vt 0.378139 0.626372
vt 0.279858 0.626372
vt 0.279856 0.481759
vt 0.279858 0.626372
vt 0.180739 0.626372
vt 0.180739 0.481759
vt 0.279856 0.481759
vt 0.180739 0.626372
vt 0.102878 0.583405
vt 0.102879 0.481759
vt 0.180739 0.481759
vt 0.180739 0.626372
vt 0.081950 0.626372
vt 0.081950 0.592315
vt 0.102878 0.583405
vt 0.483908 0.439602
vt 0.497826 0.464492
vt 0.399993 0.464492
vt 0.399993 0.439602
vt 0.497826 0.464492
vt 0.483908 0.439602
vt 0.497827 0.430435
vt 0.576069 0.083972
vt 0.660282 0.029285
vt 0.667805 0.062066
vt 0.602856 0.104244
vt 0.545920 0.180378
vt 0.576069 0.083972
vt 0.602856 0.104244
vt 0.579723 0.178836
vt 0.581408 0.274910
vt 0.545920 0.180378
vt 0.579723 0.178836
vt 0.608194 0.252603
vt 0.581408 0.274910
vt 0.608194 0.252603
vt 0.622705 0.261688
vt 0.607610 0.293095
vt 0.802534 0.179736
vt 0.798303 0.128866
vt 0.829389 0.115183
vt 0.820045 0.180607
vt 0.838187 0.195293
vt 0.820045 0.180607
vt 0.829389 0.115183
vt 0.744593 0.071793
vt 0.759829 0.041819
vt 0.829389 0.115183
vt 0.798303 0.128866
vt 0.667805 0.062066
vt 0.660282 0.029285
vt 0.759829 0.041819
vt 0.744593 0.071793
vt 0.608194 0.252603
vt 0.579723 0.178836
vt 0.635847 0.223340
vt 0.622705 0.261688
vt 0.579723 0.178836
vt 0.602856 0.104244
vt 0.635847 0.223340
vt 0.635847 0.223340
vt 0.602856 0.104244
vt 0.667805 0.062066
vt 0.718274 0.170103
vt 0.718274 0.170103
vt 0.667805 0.062066
vt 0.744593 0.071793
vt 0.718274 0.170103
vt 0.744593 0.071793
vt 0.798303 0.128866
vt 0.802534 0.179736
vt 0.327345 0.887052
vt 0.415265 0.887052
vt 0.415264 0.922276
vt 0.317431 0.922276
vt 0.327345 0.887052
vt 0.317431 0.922276
vt 0.317431 0.880522
vt 0.290304 0.820629
vt 0.290307 0.868975
vt 0.218642 0.922276
vt 0.218643 0.820629
vt 0.290307 0.868975
vt 0.317431 0.880522
vt 0.317431 0.922276
vt 0.218642 0.922276
vt 0.119525 0.820629
vt 0.218643 0.820629
vt 0.218642 0.922276
vt 0.119525 0.922276
vt 0.088513 0.820629
vt 0.119525 0.820629
vt 0.119525 0.922276
vt 0.088513 0.922276
vt 0.690420 0.922283
vt 0.611888 0.922280
vt 0.611891 0.820632
vt 0.690425 0.820635
vt 0.611888 0.922280
vt 0.564969 0.868977
vt 0.564966 0.820631
vt 0.611891 0.820632
vt 0.564969 0.868977
vt 0.611888 0.922280
vt 0.536730 0.887054
vt 0.611888 0.922280
vt 0.513098 0.922277
vt 0.513099 0.887054
vt 0.536730 0.887054
vt 0.513099 0.887054
vt 0.513098 0.922277
vt 0.415264 0.922276
vt 0.415265 0.887052
vt 0.629150 0.503013
vt 0.627825 0.571191
vt 0.596144 0.506667
vt 0.627825 0.571191
vt 0.629150 0.503013
vt 0.662306 0.580611
vt 0.615785 0.409157
vt 0.644943 0.426464
vt 0.629150 0.503013
vt 0.596144 0.506667
vt 0.678092 0.396814
vt 0.644943 0.426464
vt 0.615785 0.409157
vt 0.638417 0.387922
vt 0.842933 0.430386
vt 0.876632 0.436404
vt 0.885467 0.513348
vt 0.853055 0.507959
vt 0.823938 0.560607
vt 0.853055 0.507959
vt 0.885467 0.513348
vt 0.863798 0.553989
vt 0.081073 0.193094
vt 0.088080 0.092891
vt 0.118802 0.106662
vt 0.113430 0.183919
vt 0.139803 0.275434
vt 0.081073 0.193094
vt 0.113430 0.183919
vt 0.159072 0.247556
vt 0.139803 0.275434
vt 0.159072 0.247556
vt 0.223766 0.265626
vt 0.222072 0.278216
vt 0.222072 0.278216
vt 0.236388 0.304907
vt 0.139803 0.275434
vt 0.323637 0.103121
vt 0.317101 0.085681
vt 0.344270 0.064094
vt 0.357298 0.094771
vt 0.317101 0.085681
vt 0.250843 0.043073
vt 0.259071 0.010196
vt 0.344270 0.064094
vt 0.172911 0.051192
vt 0.158258 0.020877
vt 0.259071 0.010196
vt 0.250843 0.043073
vt 0.118802 0.106662
vt 0.088080 0.092891
vt 0.158258 0.020877
vt 0.172911 0.051192
vt 0.223766 0.265626
vt 0.159072 0.247556
vt 0.113430 0.183919
vt 0.230784 0.177158
vt 0.113430 0.183919
vt 0.118802 0.106662
vt 0.172911 0.051192
vt 0.230784 0.177158
vt 0.230784 0.177158
vt 0.172911 0.051192
vt 0.250843 0.043073
vt 0.299168 0.106514
vt 0.299168 0.106514
vt 0.250843 0.043073
vt 0.317101 0.085681
vt 0.323637 0.103121
vt 0.383837 0.941404
vt 0.383833 0.989751
vt 0.286000 0.989741
vt 0.286005 0.941396
vt 0.286005 0.941396
vt 0.286000 0.989741
vt 0.187213 0.989736
vt 0.187220 0.941390
vt 0.088513 0.941386
vt 0.187220 0.941390
vt 0.187213 0.989736
vt 0.088513 0.989730
vt 0.712125 0.941456
vt 0.712119 0.989804
vt 0.679581 0.989798
vt 0.679585 0.941451
vt 0.679581 0.989798
vt 0.580460 0.989782
vt 0.580463 0.941435
vt 0.679585 0.941451
vt 0.580460 0.989782
vt 0.481669 0.989765
vt 0.481671 0.941418
vt 0.580463 0.941435
vt 0.481671 0.941418
vt 0.481669 0.989765
vt 0.383833 0.989751
vt 0.383837 0.941404
vt 0.658000 0.758768
vt 0.680683 0.733691
vt 0.752806 0.762962
vt 0.751823 0.796995
vt 0.610353 0.669047
vt 0.643737 0.664395
vt 0.680683 0.733691
vt 0.658000 0.758768
vt 0.643737 0.664395
vt 0.610353 0.669047
vt 0.627825 0.571191
vt 0.627825 0.571191
vt 0.662306 0.580611
vt 0.643737 0.664395
vt 0.823938 0.560607
vt 0.863798 0.553989
vt 0.886532 0.577318
vt 0.856419 0.593082
vt 0.856419 0.593082
vt 0.886532 0.577318
vt 0.901009 0.676715
vt 0.867795 0.670467
vt 0.826821 0.737786
vt 0.867795 0.670467
vt 0.901009 0.676715
vt 0.848147 0.764229
vt 0.752806 0.762962
vt 0.826821 0.737786
vt 0.848147 0.764229
vt 0.751823 0.796995
vt 0.909438 0.844753
vt 0.918103 0.906279
vt 0.891987 0.901231
vt 0.885560 0.858033
vt 0.885560 0.927347
vt 0.891987 0.884149
vt 0.918104 0.879100
vt 0.909438 0.940626
vt 0.891987 0.901231
vt 0.918103 0.906279
vt 0.885915 0.959341
vt 0.869135 0.938756
vt 0.918104 0.879100
vt 0.891987 0.884149
vt 0.869135 0.846623
vt 0.885917 0.826038
vt 0.869135 0.938756
vt 0.885915 0.959341
vt 0.827482 0.980484
vt 0.827689 0.953664
vt 0.885917 0.826038
vt 0.869135 0.846623
vt 0.827689 0.831716
vt 0.827482 0.804896
vt 0.769164 0.959938
vt 0.786534 0.938946
vt 0.827689 0.953664
vt 0.827482 0.980484
vt 0.769164 0.825443
vt 0.827482 0.804896
vt 0.827689 0.831716
vt 0.786536 0.846433
vt 0.737563 0.906354
vt 0.764866 0.901324
vt 0.786534 0.938946
vt 0.769164 0.959938
vt 0.737563 0.879026
vt 0.769164 0.825443
vt 0.786536 0.846433
vt 0.764867 0.884057
vt 0.737563 0.906354
vt 0.749711 0.844592
vt 0.773204 0.858273
vt 0.764866 0.901324
vt 0.737563 0.879026
vt 0.764867 0.884057
vt 0.773204 0.927107
vt 0.749711 0.940789
vt 0.773204 0.858273
vt 0.749711 0.844592
vt 0.798517 0.804896
vt 0.807570 0.830135
vt 0.749711 0.940789
vt 0.773204 0.927107
vt 0.807570 0.955244
vt 0.798517 0.980485
vt 0.807570 0.830135
vt 0.798517 0.804896
vt 0.861174 0.804896
vt 0.851829 0.829992
vt 0.861176 0.980485
vt 0.798517 0.980485
vt 0.807570 0.955244
vt 0.851830 0.955388
vt 0.861174 0.804896
vt 0.909438 0.844753
vt 0.885560 0.858033
vt 0.851829 0.829992
vt 0.861176 0.980485
vt 0.851830 0.955388
vt 0.885560 0.927347
vt 0.909438 0.940626
vt 0.869135 0.938756
vt 0.827689 0.953664
vt 0.891987 0.901231
vt 0.786534 0.938946
vt 0.885560 0.858033
vt 0.891987 0.901231
vt 0.827689 0.953664
vt 0.764866 0.901324
vt 0.851829 0.829992
vt 0.885560 0.858033
vt 0.786534 0.938946
vt 0.764866 0.901324
vt 0.773204 0.858273
vt 0.807570 0.830135
vt 0.851829 0.829992
vt 0.827689 0.831716
vt 0.869135 0.846623
vt 0.891987 0.884149
vt 0.786536 0.846433
vt 0.827689 0.831716
vt 0.891987 0.884149
vt 0.885560 0.927347
vt 0.786536 0.846433
vt 0.885560 0.927347
vt 0.851830 0.955388
vt 0.764867 0.884057
vt 0.764867 0.884057
vt 0.851830 0.955388
vt 0.807570 0.955244
vt 0.773204 0.927107
vt 0.364943 0.804812
vt 0.309038 0.804812
vt 0.309038 0.644132
vt 0.364943 0.644132
vt 0.309038 0.644132
vt 0.309038 0.804812
vt 0.252588 0.804812
vt 0.252587 0.644133
vt 0.195947 0.644133
vt 0.252587 0.644133
vt 0.252588 0.804812
vt 0.195948 0.804812
vt 0.139787 0.644133
vt 0.195947 0.644133
vt 0.195948 0.804812
vt 0.139787 0.804814
vt 0.083981 0.644133
vt 0.139787 0.644133
vt 0.139787 0.804814
vt 0.083981 0.804814
vt 0.533940 0.804814
vt 0.533940 0.644132
vt 0.590102 0.644132
vt 0.590102 0.804812
vt 0.533940 0.644132
vt 0.533940 0.804814
vt 0.477301 0.804814
vt 0.477299 0.644132
vt 0.420849 0.644132
vt 0.477299 0.644132
vt 0.477301 0.804814
vt 0.420849 0.804812
vt 0.420849 0.804812
vt 0.364943 0.804812
vt 0.364943 0.644132
vt 0.420849 0.644132
vt 0.909722 0.844731
vt 0.918409 0.906249
vt 0.892292 0.901206
vt 0.885851 0.858012
vt 0.909722 0.940602
vt 0.885853 0.927320
vt 0.892293 0.884128
vt 0.918411 0.879085
vt 0.892292 0.901206
vt 0.918409 0.906249
vt 0.886227 0.959327
vt 0.869452 0.938733
vt 0.918411 0.879085
vt 0.892293 0.884128
vt 0.869454 0.846599
vt 0.886229 0.826007
vt 0.869452 0.938733
vt 0.886227 0.959327
vt 0.827743 0.980436
vt 0.828027 0.953615
vt 0.886229 0.826007
vt 0.869454 0.846599
vt 0.828030 0.831718
vt 0.827746 0.804896
vt 0.769433 0.959617
vt 0.786999 0.938868
vt 0.828027 0.953615
vt 0.827743 0.980436
vt 0.769434 0.825716
vt 0.827746 0.804896
vt 0.828030 0.831718
vt 0.787001 0.846464
vt 0.737563 0.906172
vt 0.765049 0.901445
vt 0.786999 0.938868
vt 0.769433 0.959617
vt 0.737563 0.879160
vt 0.769434 0.825716
vt 0.787001 0.846464
vt 0.765049 0.883887
vt 0.750031 0.844502
vt 0.773489 0.858264
vt 0.765049 0.901445
vt 0.737563 0.906172
vt 0.750031 0.940831
vt 0.737563 0.879160
vt 0.765049 0.883887
vt 0.773489 0.927068
vt 0.773489 0.858264
vt 0.750031 0.844502
vt 0.798835 0.804896
vt 0.807868 0.830131
vt 0.750031 0.940831
vt 0.773489 0.927068
vt 0.807868 0.955201
vt 0.798837 0.980436
vt 0.807868 0.830131
vt 0.798835 0.804896
vt 0.861462 0.804896
vt 0.852120 0.829986
vt 0.798837 0.980436
vt 0.807868 0.955201
vt 0.852120 0.955346
vt 0.861462 0.980436
vt 0.861462 0.804896
vt 0.909722 0.844731
vt 0.885851 0.858012
vt 0.852120 0.829986
vt 0.861462 0.980436
vt 0.852120 0.955346
vt 0.885853 0.927320
vt 0.909722 0.940602
vt 0.869452 0.938733
vt 0.828027 0.953615
vt 0.892292 0.901206
vt 0.786999 0.938868
vt 0.885851 0.858012
vt 0.892292 0.901206
vt 0.828027 0.953615
vt 0.765049 0.901445
vt 0.852120 0.829986
vt 0.885851 0.858012
vt 0.786999 0.938868
vt 0.765049 0.901445
vt 0.773489 0.858264
vt 0.807868 0.830131
vt 0.852120 0.829986
vt 0.828030 0.831718
vt 0.869454 0.846599
vt 0.892293 0.884128
vt 0.787001 0.846464
vt 0.828030 0.831718
vt 0.892293 0.884128
vt 0.885853 0.927320
vt 0.765049 0.883887
vt 0.787001 0.846464
vt 0.885853 0.927320
vt 0.852120 0.955346
vt 0.765049 0.883887
vt 0.852120 0.955346
vt 0.807868 0.955201
vt 0.773489 0.927068
vt 0.309138 0.804814
vt 0.253232 0.804814
vt 0.253232 0.644133
vt 0.309140 0.644132
vt 0.253232 0.644133
vt 0.253232 0.804814
vt 0.196781 0.804812
vt 0.196781 0.644133
vt 0.196781 0.644133
vt 0.196781 0.804812
vt 0.140141 0.804812
vt 0.140141 0.644133
vt 0.140141 0.644133
vt 0.140141 0.804812
vt 0.083981 0.804812
vt 0.083981 0.644133
vt 0.534296 0.804815
vt 0.534297 0.644133
vt 0.590102 0.644135
vt 0.590101 0.804816
vt 0.478135 0.644133
vt 0.534297 0.644133
vt 0.534296 0.804815
vt 0.478133 0.804815
vt 0.478135 0.644133
vt 0.478133 0.804815
vt 0.421494 0.804814
vt 0.421496 0.644133
vt 0.421496 0.644133
vt 0.421494 0.804814
vt 0.365043 0.804814
vt 0.365045 0.644132
vt 0.365043 0.804814
vt 0.309138 0.804814
vt 0.309140 0.644132
vt 0.365045 0.644132
vt 0.870389 0.939558
vt 0.887604 0.960105
vt 0.829234 0.980907
vt 0.829038 0.954248
vt 0.829234 0.804896
vt 0.887604 0.825696
vt 0.870389 0.846243
vt 0.829037 0.831555
vt 0.829038 0.954248
vt 0.829234 0.980907
vt 0.770298 0.959807
vt 0.787459 0.939088
vt 0.829234 0.804896
vt 0.829037 0.831555
vt 0.787459 0.846713
vt 0.770298 0.825995
vt 0.764822 0.900894
vt 0.787459 0.939088
vt 0.770298 0.959807
vt 0.737563 0.905494
vt 0.764821 0.884907
vt 0.737563 0.880305
vt 0.770298 0.825995
vt 0.787459 0.846713
vt 0.748933 0.844055
vt 0.772477 0.857803
vt 0.764822 0.900894
vt 0.737563 0.905494
vt 0.748933 0.941747
vt 0.737563 0.880305
vt 0.764821 0.884907
vt 0.772476 0.927998
vt 0.748933 0.844055
vt 0.796440 0.804896
vt 0.805867 0.830206
vt 0.772477 0.857803
vt 0.748933 0.941747
vt 0.772476 0.927998
vt 0.805867 0.955595
vt 0.796438 0.980905
vt 0.805867 0.830206
vt 0.796440 0.804896
vt 0.858179 0.804896
vt 0.849404 0.830269
vt 0.796438 0.980905
vt 0.805867 0.955595
vt 0.849401 0.955532
vt 0.858177 0.980905
vt 0.849404 0.830269
vt 0.858179 0.804896
vt 0.906384 0.844461
vt 0.883476 0.858251
vt 0.858177 0.980905
vt 0.849401 0.955532
vt 0.883475 0.927550
vt 0.906381 0.941341
vt 0.906384 0.844461
vt 0.918927 0.905977
vt 0.892083 0.901420
vt 0.883476 0.858251
vt 0.906381 0.941341
vt 0.883475 0.927550
vt 0.892082 0.884382
vt 0.918927 0.879825
vt 0.892083 0.901420
vt 0.918927 0.905977
vt 0.887604 0.960105
vt 0.870389 0.939558
vt 0.892082 0.884382
vt 0.870389 0.846243
vt 0.887604 0.825696
vt 0.918927 0.879825
vt 0.787459 0.939088
vt 0.764822 0.900894
vt 0.829038 0.954248
vt 0.764822 0.900894
vt 0.772477 0.857803
vt 0.870389 0.939558
vt 0.829038 0.954248
vt 0.772477 0.857803
vt 0.805867 0.830206
vt 0.892083 0.901420
vt 0.870389 0.939558
vt 0.805867 0.830206
vt 0.849404 0.830269
vt 0.883476 0.858251
vt 0.892083 0.901420
vt 0.764821 0.884907
vt 0.787459 0.846713
vt 0.829037 0.831555
vt 0.764821 0.884907
vt 0.829037 0.831555
vt 0.870389 0.846243
vt 0.772476 0.927998
vt 0.772476 0.927998
vt 0.870389 0.846243
vt 0.892082 0.884382
vt 0.805867 0.955595
vt 0.805867 0.955595
vt 0.892082 0.884382
vt 0.883475 0.927550
vt 0.849401 0.955532
vt 0.083981 0.804812
vt 0.083981 0.644132
vt 0.139887 0.644132
vt 0.139887 0.804812
vt 0.139887 0.804812
vt 0.139887 0.644132
vt 0.196338 0.644132
vt 0.196338 0.804812
vt 0.252978 0.804812
vt 0.196338 0.804812
vt 0.196338 0.644132
vt 0.252978 0.644132
vt 0.309140 0.804812
vt 0.252978 0.804812
vt 0.252978 0.644132
vt 0.309140 0.644132
vt 0.309140 0.804812
vt 0.309140 0.644132
vt 0.364943 0.644132
vt 0.364943 0.804812
vt 0.364943 0.804812
vt 0.364943 0.644132
vt 0.421105 0.644132
vt 0.421105 0.804813
vt 0.421105 0.804813
vt 0.421105 0.644132
vt 0.477743 0.644132
vt 0.477743 0.804813
vt 0.477743 0.644132
vt 0.534194 0.644132
vt 0.534196 0.804813
vt 0.477743 0.804813
vt 0.534194 0.644132
vt 0.590101 0.644132
vt 0.590102 0.804812
vt 0.534196 0.804813
vt 0.850707 0.956755
vt 0.859774 0.981585
vt 0.798494 0.981585
vt 0.807169 0.956646
vt 0.826651 0.804896
vt 0.826717 0.831329
vt 0.785891 0.846470
vt 0.769130 0.826061
vt 0.807169 0.956646
vt 0.798494 0.981585
vt 0.750423 0.942362
vt 0.773341 0.928627
vt 0.769130 0.826061
vt 0.785891 0.846470
vt 0.763824 0.884452
vt 0.737563 0.879498
vt 0.737563 0.880709
vt 0.764821 0.885241
vt 0.773341 0.928627
vt 0.750423 0.942362
vt 0.746868 0.941830
vt 0.737563 0.879498
vt 0.763824 0.884452
vt 0.770840 0.928083
vt 0.768831 0.826115
vt 0.786578 0.847044
vt 0.764821 0.885241
vt 0.737563 0.880709
vt 0.795325 0.982090
vt 0.746868 0.941830
vt 0.770840 0.928083
vt 0.804420 0.956283
vt 0.786578 0.847044
vt 0.768831 0.826115
vt 0.827170 0.804896
vt 0.827569 0.832160
vt 0.795325 0.982090
vt 0.804420 0.956283
vt 0.848034 0.956409
vt 0.857401 0.982090
vt 0.868904 0.846947
vt 0.827569 0.832160
vt 0.827170 0.804896
vt 0.886007 0.825794
vt 0.857401 0.982090
vt 0.848034 0.956409
vt 0.881746 0.928098
vt 0.905145 0.941969
vt 0.886007 0.825794
vt 0.918450 0.880379
vt 0.891512 0.885121
vt 0.868904 0.846947
vt 0.905145 0.941969
vt 0.881746 0.928098
vt 0.889757 0.884453
vt 0.916659 0.879580
vt 0.918450 0.880379
vt 0.906806 0.942055
vt 0.883914 0.928520
vt 0.891512 0.885121
vt 0.916659 0.879580
vt 0.889757 0.884453
vt 0.867630 0.846357
vt 0.884434 0.825748
vt 0.883914 0.928520
vt 0.906806 0.942055
vt 0.859774 0.981585
vt 0.850707 0.956755
vt 0.884434 0.825748
vt 0.867630 0.846357
vt 0.826717 0.831329
vt 0.826651 0.804896
vt 0.773341 0.928627
vt 0.764821 0.885241
vt 0.807169 0.956646
vt 0.764821 0.885241
vt 0.786578 0.847044
vt 0.850707 0.956755
vt 0.807169 0.956646
vt 0.786578 0.847044
vt 0.827569 0.832160
vt 0.883914 0.928520
vt 0.850707 0.956755
vt 0.827569 0.832160
vt 0.868904 0.846947
vt 0.891512 0.885121
vt 0.883914 0.928520
vt 0.770840 0.928083
vt 0.763824 0.884452
vt 0.785891 0.846470
vt 0.770840 0.928083
vt 0.785891 0.846470
vt 0.826717 0.831329
vt 0.804420 0.956283
vt 0.804420 0.956283
vt 0.826717 0.831329
vt 0.867630 0.846357
vt 0.848034 0.956409
vt 0.848034 0.956409
vt 0.867630 0.846357
vt 0.889757 0.884453
vt 0.881746 0.928098
vt 0.309141 0.644132
vt 0.309141 0.804812
vt 0.253235 0.804813
vt 0.253235 0.644132
vt 0.253235 0.644132
vt 0.253235 0.804813
vt 0.196784 0.804813
vt 0.196784 0.644132
vt 0.140143 0.644132
vt 0.196784 0.644132
vt 0.196784 0.804813
vt 0.140143 0.804813
vt 0.083981 0.644133
vt 0.140143 0.644132
vt 0.140143 0.804813
vt 0.083981 0.804813
vt 0.590102 0.644132
vt 0.590102 0.804812
vt 0.534297 0.804812
vt 0.534297 0.644132
vt 0.478136 0.644132
vt 0.534297 0.644132
vt 0.534297 0.804812
vt 0.478137 0.804812
vt 0.478137 0.804812
vt 0.421497 0.804812
vt 0.421497 0.644132
vt 0.478136 0.644132
vt 0.421497 0.804812
vt 0.365046 0.804812
vt 0.365046 0.644132
vt 0.421497 0.644132
vt 0.365046 0.644132
vt 0.365046 0.804812
vt 0.309141 0.804812
vt 0.309141 0.644132
# num_uvs: 936

g witchhousepostmesh

usemtl witchhousepostmat
f 1/1 2/2 3/3 4/4 
f 5/5 1/6 4/7 6/8 
f 7/9 6/10 4/11 
f 7/12 4/13 8/14 9/15 
f 7/16 9/17 10/18 11/19 
f 7/20 11/21 12/22 13/23 
f 1/24 14/25 2/26 
f 1/27 15/28 16/29 14/30 
f 15/31 1/32 17/33 18/34 
f 1/35 19/36 17/37 
f 20/38 21/39 22/40 23/41 
f 1/42 25/43 24/44 19/45 
f 26/46 20/47 23/48 27/49 
f 28/50 17/51 19/52 24/53 
f 29/54 26/55 27/56 30/57 
f 28/58 31/59 18/60 17/61 
f 29/62 30/63 32/64 33/65 
f 31/66 34/67 15/68 18/69 
f 33/70 32/71 35/72 36/73 
f 34/74 37/75 16/76 15/77 
f 36/78 35/79 38/80 39/81 
f 16/82 37/83 40/84 14/85 
f 38/86 41/87 42/88 39/89 
f 2/90 14/91 40/92 43/93 
f 44/94 45/95 42/96 41/97 
f 22/98 21/99 45/100 44/101 
f 30/102 27/103 23/104 
f 30/105 23/106 22/107 32/108 
f 32/109 22/110 44/111 35/112 
f 35/113 44/114 41/115 38/116 
f 46/117 21/118 20/119 47/120 
f 25/121 48/122 26/123 24/124 
f 26/125 48/126 49/127 
f 47/128 20/129 26/130 49/131 
f 29/132 28/133 24/134 26/135 
f 31/136 28/137 29/138 33/139 
f 31/140 33/141 36/142 34/143 
f 34/144 36/145 39/146 37/147 
f 39/148 42/149 40/150 37/151 
f 42/152 50/153 43/154 40/155 
f 42/156 45/157 51/158 50/159 
f 52/160 45/161 21/162 46/163 
f 45/164 52/165 51/166 
f 53/167 54/168 55/169 56/170 
f 57/171 53/172 56/173 58/174 
f 59/175 57/176 58/177 60/178 
f 59/179 60/180 49/181 48/182 
f 52/183 61/184 62/185 51/186 
f 50/187 51/188 62/189 
f 63/190 64/191 62/192 61/193 
f 55/194 54/195 64/196 63/197 
f 60/198 58/199 47/200 49/201 
f 58/202 56/203 47/204 
f 47/205 56/206 55/207 46/208 
f 46/209 55/210 63/211 
f 46/212 63/213 61/214 52/215 
f 65/216 66/217 54/218 53/219 
f 65/220 53/221 67/222 
f 68/223 69/224 57/225 70/226 
f 69/227 67/228 53/229 57/230 
f 71/231 70/232 57/233 59/234 
f 25/235 71/236 59/237 48/238 
f 50/239 62/240 72/241 43/242 
f 62/243 73/244 74/245 72/246 
f 73/247 62/248 75/249 
f 62/250 64/251 76/252 75/253 
f 76/254 64/255 54/256 66/257 
f 6/258 68/259 70/260 
f 68/261 6/262 7/263 
f 71/264 5/265 6/266 70/267 
f 1/268 5/269 71/270 25/271 
f 2/272 43/273 72/274 3/275 
f 4/276 3/277 72/278 74/279 
f 77/280 78/281 79/282 80/283 
f 81/284 77/285 80/286 82/287 
f 81/288 82/289 65/290 67/291 
f 67/292 69/293 81/294 
f 75/295 83/296 84/297 73/298 
f 83/299 85/300 86/301 84/302 
f 87/303 88/304 86/305 85/306 
f 79/307 78/308 88/309 87/310 
f 65/311 82/312 80/313 66/314 
f 80/315 79/316 87/317 66/318 
f 66/319 87/320 85/321 76/322 
f 76/323 85/324 83/325 75/326 
f 89/327 78/328 77/329 90/330 
f 90/331 77/332 81/333 91/334 
f 68/335 91/336 81/337 69/338 
f 74/339 73/340 84/341 92/342 
f 84/343 86/344 93/345 92/346 
f 86/347 88/348 94/349 93/350 
f 94/351 88/352 78/353 89/354 
f 90/355 12/356 11/357 89/358 
f 91/359 13/360 12/361 90/362 
f 13/363 91/364 68/365 
f 68/366 7/367 13/368 
f 4/369 74/370 92/371 8/372 
f 8/373 92/374 93/375 9/376 
f 10/377 9/378 93/379 94/380 
f 11/381 10/382 94/383 89/384 
f 95/385 96/386 97/387 98/388 
f 99/389 100/390 101/391 102/392 
f 97/393 96/394 103/395 104/396 
f 101/397 100/398 105/399 106/400 
f 104/401 103/402 107/403 108/404 
f 106/405 105/406 109/407 110/408 
f 111/409 112/410 108/411 107/412 
f 113/413 110/414 109/415 114/416 
f 115/417 116/418 112/419 111/420 
f 117/421 113/422 114/423 118/424 
f 115/425 119/426 120/427 116/428 
f 117/429 118/430 121/431 122/432 
f 120/433 119/434 123/435 124/436 
f 122/437 121/438 125/439 126/440 
f 124/441 123/442 127/443 128/444 
f 129/445 126/446 125/447 130/448 
f 127/449 95/450 98/451 128/452 
f 129/453 130/454 99/455 102/456 
f 104/457 108/458 97/459 
f 112/460 98/461 97/462 108/463 
f 116/464 128/465 98/466 112/467 
f 116/468 120/469 124/470 128/471 
f 109/472 105/473 100/474 
f 114/475 109/476 100/477 99/478 
f 114/479 99/480 130/481 118/482 
f 118/483 130/484 125/485 121/486 
f 102/487 101/488 96/489 95/490 
f 96/491 101/492 106/493 103/494 
f 107/495 103/496 106/497 110/498 
f 111/499 107/500 110/501 113/502 
f 115/503 111/504 113/505 117/506 
f 122/507 119/508 115/509 117/510 
f 119/511 122/512 126/513 123/514 
f 127/515 123/516 126/517 129/518 
f 129/519 102/520 95/521 127/522 
f 131/523 132/524 133/525 134/526 
f 135/527 136/528 137/529 138/530 
f 133/531 132/532 139/533 140/534 
f 138/535 137/536 141/537 142/538 
f 140/539 139/540 143/541 144/542 
f 142/543 141/544 145/545 146/546 
f 147/547 148/548 144/549 143/550 
f 149/551 146/552 145/553 150/554 
f 151/555 152/556 148/557 147/558 
f 153/559 149/560 150/561 154/562 
f 155/563 156/564 152/565 151/566 
f 157/567 153/568 154/569 158/570 
f 156/571 155/572 159/573 160/574 
f 157/575 158/576 161/577 162/578 
f 160/579 159/580 163/581 164/582 
f 162/583 161/584 165/585 166/586 
f 163/587 131/588 134/589 164/590 
f 166/591 165/592 136/593 135/594 
f 140/595 144/596 133/597 
f 148/598 134/599 133/600 144/601 
f 152/602 164/603 134/604 148/605 
f 152/606 156/607 160/608 164/609 
f 145/610 141/611 137/612 
f 150/613 145/614 137/615 136/616 
f 154/617 150/618 136/619 165/620 
f 154/621 165/622 161/623 158/624 
f 135/625 138/626 132/627 131/628 
f 132/629 138/630 142/631 139/632 
f 139/633 142/634 146/635 143/636 
f 143/637 146/638 149/639 147/640 
f 153/641 151/642 147/643 149/644 
f 155/645 151/646 153/647 157/648 
f 155/649 157/650 162/651 159/652 
f 159/653 162/654 166/655 163/656 
f 166/657 135/658 131/659 163/660 
f 167/661 168/662 169/663 170/664 
f 171/665 172/666 173/667 174/668 
f 170/669 169/670 175/671 176/672 
f 171/673 174/674 177/675 178/676 
f 179/677 176/678 175/679 180/680 
f 181/681 182/682 178/683 177/684 
f 183/685 184/686 179/687 180/688 
f 185/689 182/690 181/691 186/692 
f 183/693 187/694 188/695 184/696 
f 185/697 186/698 189/699 190/700 
f 188/701 187/702 191/703 192/704 
f 190/705 189/706 193/707 194/708 
f 192/709 191/710 195/711 196/712 
f 194/713 193/714 197/715 198/716 
f 195/717 199/718 200/719 196/720 
f 198/721 197/722 201/723 202/724 
f 200/725 199/726 168/727 167/728 
f 201/729 173/730 172/731 202/732 
f 176/733 179/734 170/735 
f 179/736 184/737 167/738 170/739 
f 184/740 188/741 200/742 167/743 
f 188/744 192/745 196/746 200/747 
f 181/748 177/749 174/750 
f 181/751 174/752 173/753 186/754 
f 186/755 173/756 201/757 189/758 
f 189/759 201/760 197/761 193/762 
f 168/763 172/764 171/765 169/766 
f 169/767 171/768 178/769 175/770 
f 180/771 175/772 178/773 182/774 
f 183/775 180/776 182/777 185/778 
f 183/779 185/780 190/781 187/782 
f 187/783 190/784 194/785 191/786 
f 191/787 194/788 198/789 195/790 
f 198/791 202/792 199/793 195/794 
f 202/795 172/796 168/797 199/798 
f 203/799 204/800 205/801 206/802 
f 207/803 208/804 209/805 210/806 
f 206/807 205/808 211/809 212/810 
f 210/811 209/812 213/813 214/814 
f 215/815 216/816 212/817 211/818 
f 217/819 214/820 213/821 218/822 
f 219/823 220/824 216/825 215/826 
f 221/827 217/828 218/829 222/830 
f 220/831 219/832 223/833 224/834 
f 221/835 222/836 225/837 226/838 
f 227/839 224/840 223/841 228/842 
f 226/843 225/844 229/845 230/846 
f 228/847 231/848 232/849 227/850 
f 230/851 229/852 233/853 234/854 
f 231/855 235/856 236/857 232/858 
f 234/859 233/860 237/861 238/862 
f 236/863 235/864 204/865 203/866 
f 238/867 237/868 208/869 207/870 
f 212/871 216/872 206/873 
f 216/874 220/875 203/876 206/877 
f 220/878 224/879 236/880 203/881 
f 224/882 227/883 232/884 236/885 
f 218/886 213/887 209/888 
f 218/889 209/890 208/891 222/892 
f 222/893 208/894 237/895 225/896 
f 225/897 237/898 233/899 229/900 
f 204/901 207/902 210/903 205/904 
f 205/905 210/906 214/907 211/908 
f 215/909 211/910 214/911 217/912 
f 219/913 215/914 217/915 221/916 
f 219/917 221/918 226/919 223/920 
f 228/921 223/922 226/923 230/924 
f 230/925 234/926 231/927 228/928 
f 234/929 238/930 235/931 231/932 
f 235/933 238/934 207/935 204/936 
# num_faces: 240

